<svg width="24" height="24" viewBox="0 0 24 24" fill="none" xmlns="http://www.w3.org/2000/svg">
<rect x="0.992188" width="23.0076" height="23.0076" fill="#444545"/>
<path d="M12.002 9.12171C10.5823 9.12171 9.43722 10.2573 9.43722 11.6651C9.43722 13.0729 10.5823 14.2084 12.002 14.2084C13.4216 14.2084 14.5667 13.0729 14.5667 11.6651C14.5667 10.2573 13.4216 9.12171 12.002 9.12171ZM12.002 13.3186C11.0845 13.3186 10.3345 12.5771 10.3345 11.6651C10.3345 10.7531 11.0823 10.0116 12.002 10.0116C12.9216 10.0116 13.6694 10.7531 13.6694 11.6651C13.6694 12.5771 12.9194 13.3186 12.002 13.3186ZM15.2698 9.01768C15.2698 9.34749 15.002 9.61091 14.6716 9.61091C14.339 9.61091 14.0734 9.34528 14.0734 9.01768C14.0734 8.69007 14.3412 8.42445 14.6716 8.42445C15.002 8.42445 15.2698 8.69007 15.2698 9.01768ZM16.9685 9.61976C16.9305 8.8251 16.7475 8.12119 16.1604 7.54124C15.5756 6.9613 14.8658 6.77979 14.0645 6.73994C13.2386 6.69346 10.7631 6.69346 9.93722 6.73994C9.13811 6.77757 8.42829 6.95908 7.84124 7.53903C7.25419 8.11898 7.07338 8.82288 7.0332 9.61755C6.98633 10.4366 6.98633 12.8914 7.0332 13.7104C7.07115 14.505 7.25419 15.209 7.84124 15.7889C8.42829 16.3688 9.13588 16.5504 9.93722 16.5902C10.7631 16.6367 13.2386 16.6367 14.0645 16.5902C14.8658 16.5526 15.5756 16.3711 16.1604 15.7889C16.7453 15.209 16.9283 14.505 16.9685 13.7104C17.0153 12.8914 17.0153 10.4388 16.9685 9.61976ZM15.9015 14.5892C15.7274 15.023 15.3903 15.3573 14.9506 15.5321C14.2921 15.7911 12.7296 15.7313 12.002 15.7313C11.2743 15.7313 9.70954 15.7889 9.05329 15.5321C8.61579 15.3595 8.27874 15.0252 8.1024 14.5892C7.84124 13.9362 7.90151 12.3867 7.90151 11.6651C7.90151 10.9435 7.84347 9.39176 8.1024 8.74098C8.27651 8.30713 8.61356 7.97288 9.05329 7.79801C9.71177 7.53903 11.2743 7.5988 12.002 7.5988C12.7296 7.5988 14.2944 7.54124 14.9506 7.79801C15.3881 7.97067 15.7252 8.30492 15.9015 8.74098C16.1627 9.39398 16.1024 10.9435 16.1024 11.6651C16.1024 12.3867 16.1627 13.9384 15.9015 14.5892Z" fill="white"/>
</svg>
