<svg width="24" height="24" viewBox="0 0 24 24" fill="none" xmlns="http://www.w3.org/2000/svg">
<rect width="23.0076" height="23.0076" fill="#444545"/>
<path d="M8.23839 17H6.16518V10.3235H8.23839V17ZM7.20067 9.41278C6.53772 9.41278 6 8.86366 6 8.2007C6 7.88225 6.1265 7.57685 6.35167 7.35168C6.57684 7.1265 6.88223 7 7.20067 7C7.51911 7 7.8245 7.1265 8.04967 7.35168C8.27484 7.57685 8.40134 7.88225 8.40134 8.2007C8.40134 8.86366 7.86339 9.41278 7.20067 9.41278ZM15.9978 17H13.929V13.7499C13.929 12.9754 13.9134 11.982 12.8511 11.982C11.7732 11.982 11.608 12.8236 11.608 13.6941V17H9.53705V10.3235H11.5254V11.2342H11.5545C11.8313 10.7097 12.5074 10.1561 13.5161 10.1561C15.6143 10.1561 16 11.5378 16 13.3325V17H15.9978Z" fill="white"/>
</svg>
