<svg width="24" height="24" viewBox="0 0 24 24" fill="none" xmlns="http://www.w3.org/2000/svg">
<rect x="0.496094" width="23.0076" height="23.0076" fill="#444545"/>
<path d="M17.3057 8.95798C17.5442 9.88798 17.5442 11.8294 17.5442 11.8294C17.5442 11.8294 17.5442 13.7708 17.3057 14.7009C17.1732 15.2149 16.7854 15.6194 16.2943 15.7561C15.4024 16.0045 12.3253 16.0045 12.3253 16.0045C12.3253 16.0045 9.24985 16.0045 8.35637 15.7561C7.86319 15.6173 7.47594 15.2133 7.34495 14.7009C7.10645 13.7708 7.10645 11.8294 7.10645 11.8294C7.10645 11.8294 7.10645 9.88798 7.34495 8.95798C7.47751 8.44392 7.86527 8.03945 8.35637 7.90272C9.24985 7.6543 12.3253 7.6543 12.3253 7.6543C12.3253 7.6543 15.4024 7.6543 16.2943 7.90272C16.7875 8.04154 17.1747 8.44548 17.3057 8.95798ZM11.2816 13.656L14.4129 11.8294L11.2816 10.0028V13.656Z" fill="white"/>
</svg>
