<svg width="140" height="140" viewBox="0 0 140 140" fill="none" xmlns="http://www.w3.org/2000/svg">
<rect width="140" height="140" fill="#444545"/>
<path d="M70.0067 54.4917C61.4936 54.4917 54.6269 61.3012 54.6269 69.7434C54.6269 78.1855 61.4936 84.995 70.0067 84.995C78.5198 84.995 85.3865 78.1855 85.3865 69.7434C85.3865 61.3012 78.5198 54.4917 70.0067 54.4917ZM70.0067 79.6589C64.5053 79.6589 60.0078 75.2122 60.0078 69.7434C60.0078 64.2745 64.4919 59.8278 70.0067 59.8278C75.5215 59.8278 80.0056 64.2745 80.0056 69.7434C80.0056 75.2122 75.5081 79.6589 70.0067 79.6589ZM89.6029 53.8678C89.6029 55.8456 87.9967 57.4252 86.0156 57.4252C84.0212 57.4252 82.4283 55.8324 82.4283 53.8678C82.4283 51.9033 84.0346 50.3105 86.0156 50.3105C87.9967 50.3105 89.6029 51.9033 89.6029 53.8678ZM99.7892 57.4783C99.5616 52.713 98.464 48.4919 94.9437 45.0142C91.4367 41.5364 87.1801 40.448 82.3748 40.2091C77.4222 39.9303 62.5778 39.9303 57.6252 40.2091C52.8332 40.4347 48.5767 41.5232 45.0563 45.0009C41.536 48.4787 40.4518 52.6997 40.2108 57.4651C39.9297 62.3764 39.9297 77.0971 40.2108 82.0084C40.4384 86.7737 41.536 90.9948 45.0563 94.4725C48.5767 97.9503 52.8199 99.0387 57.6252 99.2777C62.5778 99.5564 77.4222 99.5564 82.3748 99.2777C87.1801 99.052 91.4367 97.9636 94.9437 94.4725C98.4506 90.9948 99.5482 86.7737 99.7892 82.0084C100.07 77.0971 100.07 62.3897 99.7892 57.4783ZM93.391 87.2781C92.3469 89.8798 90.3257 91.8841 87.6888 92.9328C83.7401 94.4858 74.3703 94.1274 70.0067 94.1274C65.6431 94.1274 56.2599 94.4725 52.3246 92.9328C49.7011 91.8974 47.6799 89.8931 46.6224 87.2781C45.0563 83.3623 45.4177 74.0706 45.4177 69.7434C45.4177 65.4161 45.0697 56.1111 46.6224 52.2086C47.6665 49.6069 49.6877 47.6026 52.3246 46.554C56.2733 45.0009 65.6431 45.3593 70.0067 45.3593C74.3703 45.3593 83.7535 45.0142 87.6888 46.554C90.3123 47.5893 92.3335 49.5937 93.391 52.2086C94.9571 56.1244 94.5957 65.4161 94.5957 69.7434C94.5957 74.0706 94.9571 83.3756 93.391 87.2781Z" fill="white"/>
</svg>
