<svg width="140" height="140" viewBox="0 0 140 140" fill="none" xmlns="http://www.w3.org/2000/svg">
<rect width="140" height="140" fill="#444545"/>
<path d="M53.4304 102H40.9911V61.9411H53.4304V102ZM47.204 56.4767C43.2263 56.4767 40 53.1819 40 49.2042C40 47.2935 40.759 45.4611 42.11 44.1101C43.461 42.759 45.2934 42 47.204 42C49.1146 42 50.947 42.759 52.298 44.1101C53.649 45.4611 54.408 47.2935 54.408 49.2042C54.408 53.1819 51.1804 56.4767 47.204 56.4767ZM99.9866 102H87.5741V82.4996C87.5741 77.8521 87.4804 71.8922 81.1067 71.8922C74.6393 71.8922 73.6482 76.9414 73.6482 82.1647V102H61.2223V61.9411H73.1527V67.4055H73.3268C74.9875 64.2581 79.0442 60.9366 85.0964 60.9366C97.6857 60.9366 100 69.2269 100 79.995V102H99.9866Z" fill="white"/>
</svg>
