<svg width="140" height="140" viewBox="0 0 140 140" fill="none" xmlns="http://www.w3.org/2000/svg">
<rect width="140" height="140" fill="#444545"/>
<path d="M102.289 54.511C103.74 60.17 103.74 71.9835 103.74 71.9835C103.74 71.9835 103.74 83.797 102.289 89.4561C101.482 92.5841 99.1226 95.0453 96.1343 95.8773C90.7071 97.3889 71.9833 97.3889 71.9833 97.3889C71.9833 97.3889 53.2691 97.3889 47.8323 95.8773C44.8313 95.0326 42.4749 92.5746 41.6778 89.4561C40.2266 83.797 40.2266 71.9835 40.2266 71.9835C40.2266 71.9835 40.2266 60.17 41.6778 54.511C42.4845 51.3829 44.844 48.9218 47.8323 48.0897C53.2691 46.5781 71.9833 46.5781 71.9833 46.5781C71.9833 46.5781 90.7071 46.5781 96.1343 48.0897C99.1353 48.9345 101.492 51.3924 102.289 54.511ZM65.632 83.0984L84.686 71.9835L65.632 60.8687V83.0984Z" fill="white"/>
</svg>
